<svg xmlns="http://www.w3.org/2000/svg" width="981" height="768" viewBox="0 0 981 768" version="1.1"><path d="M 768 199.352 C 754.473 203.009, 746.935 212.219, 754.260 216.139 C 756.851 217.526, 766.667 217.795, 773.638 216.672 C 778.250 215.928, 778.989 216.072, 780.856 218.076 C 782 219.304, 783.773 222.827, 784.796 225.904 C 786.160 230.007, 787.203 231.581, 788.704 231.803 C 791.592 232.231, 795.312 236.506, 796.559 240.829 L 797.618 244.500 799.313 239.479 C 801.656 232.541, 803.962 221.268, 803.983 216.651 C 804.023 207.699, 798.027 202.172, 785.364 199.489 C 777.189 197.757, 773.991 197.732, 768 199.352 M 801.607 270.750 C 801.923 273.913, 802.960 286.625, 803.911 299 L 805.638 321.500 798.001 344.446 C 793.801 357.066, 790.119 366.741, 789.818 365.946 C 789.518 365.151, 784.414 342.900, 778.475 316.500 C 772.536 290.100, 767.552 268.340, 767.400 268.144 C 767.247 267.948, 765.182 269.135, 762.811 270.780 C 760.440 272.426, 751.178 276.636, 742.230 280.136 C 726.326 286.357, 725.938 286.579, 724.990 290 C 724.457 291.925, 721.074 309.250, 717.472 328.500 L 710.923 363.500 718.483 399.500 C 722.641 419.300, 726.289 436.175, 726.589 437 C 727 438.128, 727.845 437.633, 730 435 C 732.627 431.791, 732.920 431.666, 733.526 433.500 C 735.308 438.890, 736.452 441.304, 738.388 443.766 C 740.107 445.950, 740.523 447.944, 740.624 454.475 C 740.934 474.465, 746.277 529.918, 749.924 551 L 753.644 572.500 746.883 580.064 L 740.123 587.628 747.453 596.808 C 751.484 601.857, 756.098 607.486, 757.705 609.317 C 760.258 612.225, 760.909 614.337, 762.855 626.030 C 764.079 633.392, 765.250 639.583, 765.455 639.789 C 765.826 640.160, 794.239 637.094, 794.700 636.633 C 794.832 636.501, 793.595 624.774, 791.951 610.572 C 789.519 589.572, 789.196 584.449, 790.221 583.126 C 794.903 577.087, 811.167 557.933, 818.351 550 C 831.010 536.020, 835.512 525.362, 837.934 503.637 C 839.169 492.559, 839.237 467.304, 838.064 455.010 L 837.254 446.521 840.619 442.590 C 845.264 437.164, 848.327 428.668, 847.538 423.404 C 847.082 420.363, 848.361 412.838, 852.461 394.451 C 855.507 380.787, 858.013 368.683, 858.030 367.553 C 858.046 366.424, 854.791 347.701, 850.798 325.947 L 843.536 286.395 822.832 275.697 C 811.444 269.814, 801.880 265, 801.579 265 C 801.277 265, 801.290 267.587, 801.607 270.750 M 737.357 358.244 L 733.391 373.499 736.657 385.877 C 738.453 392.686, 740.102 398.436, 740.322 398.655 C 740.542 398.875, 741.957 395.575, 743.466 391.322 L 746.211 383.590 744.108 363.631 C 742.952 352.654, 741.852 343.518, 741.664 343.330 C 741.476 343.142, 739.538 349.853, 737.357 358.244 M 827.275 366.662 C 826.261 380.106, 826.289 380.478, 829.012 389.912 C 830.534 395.186, 832.029 398.825, 832.334 398 C 835.683 388.936, 834.742 363.068, 830.822 356.422 C 829.711 354.540, 828.690 353, 828.553 353 C 828.417 353, 827.841 359.148, 827.275 366.662 M 789.684 389 C 789.347 389.825, 787.753 394.663, 786.141 399.750 L 783.211 409 789.106 409 C 793.173 409, 794.989 408.613, 794.966 407.750 C 794.869 404.248, 790.210 387.710, 789.684 389 M 787.114 505.250 C 786.446 520.788, 785.689 534.513, 785.431 535.750 C 785.173 536.987, 785.347 538, 785.819 538 C 786.290 538, 790.045 534.288, 794.164 529.750 L 801.652 521.500 795.590 499.250 C 792.256 487.012, 789.258 477, 788.928 477 C 788.598 477, 787.781 489.712, 787.114 505.250 M 729 589.376 C 724.875 590.544, 720.911 591.880, 720.191 592.345 C 718.693 593.313, 719.125 596.338, 722.067 605.500 C 723.126 608.800, 725.537 619.262, 727.423 628.749 C 731.232 647.905, 733.845 654.707, 739.937 661.315 C 745.099 666.916, 747.515 667.669, 749.687 664.355 C 751.079 662.231, 751.227 659.588, 750.735 645.690 C 750.253 632.062, 750.447 628.394, 751.959 622.513 C 752.947 618.670, 753.537 614.958, 753.271 614.263 C 752.996 613.546, 751.110 613, 748.909 613 C 746.034 613, 744.187 612.244, 741.766 610.075 L 738.500 607.151 738.559 597.075 C 738.598 590.537, 738.247 587.044, 737.559 587.126 C 736.977 587.195, 733.125 588.207, 729 589.376 M 781.962 642.250 C 778.062 644.217, 777.268 645.193, 775.659 650 C 773.455 656.588, 773.003 666.094, 774.792 668.250 C 776.284 670.047, 790.962 672.450, 794.277 671.440 C 800.316 669.601, 801.387 664.633, 798.469 652 C 795.878 640.784, 795.364 640, 790.591 640 C 788.258 640, 784.459 640.991, 781.962 642.250" stroke="none" fill="#2f2e41" fill-rule="evenodd"/><path d="M 0 384.001 L 0 768.002 490.750 767.751 L 981.500 767.500 981.751 383.750 L 982.003 0 491.001 0 L 0 0 0 384.001 M 0.495 384.500 C 0.495 595.700, 0.610 681.951, 0.750 576.169 C 0.890 470.386, 0.890 297.586, 0.750 192.169 C 0.610 86.751, 0.495 173.300, 0.495 384.500 M 320.227 82.382 C 312.448 85.337, 307.837 88.375, 301.840 94.496 C 293.896 102.604, 289 114.317, 289 125.210 C 289 128.772, 288.621 130, 287.520 130 C 284.672 130, 278 133.230, 278 134.609 C 278 136.318, 277.671 136.331, 283.376 134.388 C 285.979 133.501, 288.316 132.983, 288.569 133.236 C 288.823 133.490, 289.716 136.328, 290.553 139.543 C 294.556 154.911, 306.727 167.411, 322.305 172.156 C 327.753 173.815, 331.045 174.150, 338.817 173.838 C 347.523 173.489, 349.332 173.065, 356.366 169.724 C 369.878 163.307, 379.640 150.998, 382.181 137.171 C 382.754 134.052, 383.643 130.687, 384.156 129.693 C 384.739 128.563, 384.719 126.690, 384.102 124.693 C 383.560 122.937, 382.618 118.955, 382.008 115.845 C 379.389 102.490, 369.775 90.652, 356.354 84.259 C 348.941 80.728, 347.882 80.503, 337.500 80.258 C 327.942 80.032, 325.678 80.311, 320.227 82.382 M 318.455 103.455 C 316.005 105.904, 316 105.950, 316 126.844 C 316 154.291, 314.597 152.392, 335.189 152.817 C 349.637 153.115, 350.723 153.006, 353.280 150.995 C 355.979 148.871, 356 148.761, 356 136.427 L 356 124 347 124 C 334.672 124, 334 123.303, 334 110.500 L 334 101 327.455 101 C 321.838 101, 320.561 101.348, 318.455 103.455 M 339 111.500 L 339 119 346.725 119 L 354.450 119 347 111.500 C 342.903 107.375, 339.426 104, 339.275 104 C 339.124 104, 339 107.375, 339 111.500 M 325.667 128.667 C 325.300 129.033, 325 130.158, 325 131.167 C 325 132.834, 326.001 133, 336.031 133 C 345.224 133, 347.165 132.733, 347.677 131.399 C 348.015 130.519, 347.663 129.400, 346.896 128.914 C 345.279 127.890, 326.660 127.673, 325.667 128.667 M 395.688 130.371 C 395.265 131.474, 396.693 132.388, 401.233 133.921 C 404.596 135.057, 407.550 135.784, 407.797 135.536 C 409.017 134.316, 406.771 132.248, 403 131.118 C 400.686 130.425, 398.222 129.639, 397.525 129.371 C 396.828 129.104, 396.002 129.554, 395.688 130.371 M 260.750 140.566 C 256.600 142.726, 254.539 145, 256.731 145 C 258.943 145, 268 140.432, 268 139.316 C 268 137.431, 266.163 137.748, 260.750 140.566 M 325 140 C 325 141.982, 325.456 142.054, 336.250 141.783 C 345.458 141.551, 347.500 141.228, 347.500 140 C 347.500 138.772, 345.458 138.449, 336.250 138.217 C 325.456 137.946, 325 138.018, 325 140 M 418 138.983 C 418 139.995, 427.122 145, 428.967 145 C 431.603 145, 429.552 142.181, 425.473 140.199 C 420.606 137.834, 418 137.410, 418 138.983 M 241 151.609 C 239.075 152.986, 236.825 154.510, 236 154.994 C 234.880 155.652, 234.787 156.166, 235.634 157.022 C 236.485 157.882, 238.041 157.336, 241.865 154.834 C 246.594 151.740, 247.730 150.001, 245.438 149.365 C 244.922 149.221, 242.925 150.231, 241 151.609 M 439 149.952 C 439 150.476, 440.913 152.199, 443.250 153.782 C 449.519 158.027, 449.742 158.114, 450.338 156.562 C 450.693 155.636, 449.207 154.058, 446.105 152.067 C 441.210 148.926, 439 148.268, 439 149.952 M 459.186 163.214 C 458.393 164.007, 459.249 165.356, 462.295 168.113 C 464.608 170.206, 467.036 171.936, 467.691 171.959 C 470.538 172.057, 469.613 169.986, 465.116 166.195 C 461.613 163.241, 459.980 162.420, 459.186 163.214 M 221.299 166.250 C 217.096 169.761, 216.643 170.429, 217.242 172.227 C 217.725 173.676, 227 166.130, 227 164.288 C 227 162.238, 225.472 162.764, 221.299 166.250 M 203.411 183.544 C 201.053 186.421, 200.037 188.437, 200.640 189.040 C 201.867 190.267, 210.496 181.611, 209.558 180.093 C 208.396 178.214, 207.251 178.857, 203.411 183.544 M 476 179.560 C 476 180.843, 483.528 189, 484.712 189 C 487.061 189, 486.049 186.454, 482.208 182.703 C 478.838 179.412, 476 177.975, 476 179.560 M 188.592 202.139 C 185.400 206.880, 184.866 209, 186.867 209 C 187.779 209, 194 200.305, 194 199.030 C 194 196.233, 191.666 197.575, 188.592 202.139 M 492 198.070 C 492 200.016, 498.069 208, 499.548 208 C 501.666 208, 501.345 207.038, 497.465 201.750 C 494.134 197.209, 492 195.772, 492 198.070 M 768.500 198.367 C 759.095 200.777, 752.113 205.587, 750.553 210.733 C 749.734 213.435, 753.768 218, 756.975 218 L 759.041 218 756.920 222.156 C 751.988 231.825, 755.326 244.763, 764.234 250.500 C 768.868 253.485, 768.892 253.528, 768.946 259.218 L 769 264.935 763.750 268.819 C 760.527 271.203, 752.321 275.133, 742.500 278.994 C 733.700 282.454, 725.979 285.925, 725.342 286.708 C 724.705 287.491, 723.433 292.264, 722.516 297.316 C 721.599 302.367, 718.413 319.307, 715.435 334.960 L 710.021 363.419 718.010 401.296 C 722.405 422.128, 726 439.358, 726 439.586 C 726 441.006, 728.041 439.493, 730.179 436.489 L 732.677 432.978 733.865 436.944 C 734.519 439.125, 736.108 442.168, 737.398 443.705 C 739.431 446.128, 739.756 447.630, 739.845 455 C 740.066 473.496, 745.956 534.304, 749.385 553.500 L 752.779 572.500 746.640 579.011 C 740.663 585.350, 740.262 585.584, 731.500 587.836 C 726.550 589.108, 721.712 590.371, 720.750 590.642 C 718.303 591.331, 718.440 598.075, 721.053 605.593 C 722.183 608.842, 724.621 619.227, 726.472 628.671 C 728.323 638.116, 730.716 647.830, 731.790 650.259 L 733.744 654.675 726.122 656.904 C 711.801 661.094, 705.677 666.806, 709.405 672.496 C 713.156 678.220, 722.834 682.177, 741.500 685.620 C 755.957 688.287, 809.219 688.337, 825.858 685.700 C 852.257 681.515, 864.517 674.500, 859.967 666.182 C 856.318 659.511, 833.785 652.786, 810.397 651.388 L 799.232 650.720 797.614 645.110 C 796.723 642.025, 794.614 627.196, 792.925 612.158 C 790.278 588.573, 790.048 584.589, 791.258 583.158 C 792.029 582.246, 797.174 576.100, 802.689 569.500 C 808.205 562.900, 816.186 553.675, 820.425 549 C 829.235 539.283, 833.091 532.044, 835.934 519.885 C 839.785 503.410, 841.012 478.581, 839.064 456.500 L 838.270 447.500 842.152 442.064 C 846.754 435.619, 849.274 427.978, 848.376 423.191 C 847.932 420.822, 849.496 411.834, 853.536 393.551 L 859.333 367.312 851.927 327.077 C 847.854 304.949, 844.291 286.500, 844.011 286.080 C 843.730 285.661, 833.721 280.267, 821.769 274.094 C 809.817 267.921, 799.789 262.468, 799.485 261.976 C 799.181 261.484, 798.567 258.044, 798.120 254.332 C 797.394 248.303, 797.610 246.691, 800.141 239.250 C 801.699 234.668, 803.502 226.959, 804.146 222.120 C 805.217 214.076, 805.154 212.985, 803.409 209.423 C 802.359 207.280, 799.953 204.496, 798.063 203.237 C 791.020 198.545, 776.889 196.218, 768.500 198.367 M 160.225 208.119 C 147.200 209.708, 132.836 219.522, 126.018 231.491 C 115.442 250.057, 119.332 274.834, 135.118 289.449 C 144.502 298.136, 154.328 301.930, 167.568 301.976 C 196.376 302.075, 218.690 276.085, 214.125 247.750 C 209.922 221.660, 187.054 204.845, 160.225 208.119 M 510.536 208.124 C 501.865 209.371, 490.971 214.899, 484.571 221.299 C 475.495 230.375, 471.033 241.512, 471.012 255.145 C 470.971 281.536, 491.492 302, 518 302 C 536.810 302, 552.295 292.299, 560.731 275.229 C 564.484 267.635, 564.500 267.552, 564.500 255.052 C 564.500 242.669, 564.451 242.399, 560.873 235 C 558.879 230.875, 555.622 225.635, 553.636 223.355 C 543.622 211.862, 526.535 205.823, 510.536 208.124 M 512.500 237 C 510.732 238.953, 510.753 239, 513.411 239 C 519.045 239, 521.776 242.202, 519.814 246.508 C 518.881 248.557, 519.001 249.344, 520.504 251.004 C 522.171 252.847, 522.520 252.889, 524.627 251.508 C 527.720 249.482, 529 249.609, 529 251.943 C 529 253.012, 530.003 254.589, 531.229 255.448 C 533.341 256.927, 533.639 256.828, 536.921 253.546 C 540.318 250.149, 540.349 250.043, 538.537 248.041 C 537.521 246.919, 536.161 246, 535.514 246 C 534.867 246, 533.699 244.797, 532.919 243.326 C 529.272 236.455, 516.558 232.516, 512.500 237 M 174 239.300 C 174 240.015, 174.540 241.140, 175.200 241.800 C 176.133 242.733, 173.789 243, 164.650 243 C 152.091 243, 148.534 243.972, 145.561 248.217 C 143.832 250.685, 143.429 257, 145 257 C 145.550 257, 146 256.070, 146 254.934 C 146 252.404, 147.783 248.917, 149.913 247.282 C 150.967 246.473, 155.845 246.053, 164.424 246.032 L 177.349 246 175.165 248.324 C 171.456 252.272, 174.143 252.266, 178.187 248.318 L 181.999 244.595 178.804 241.297 C 175.396 237.781, 174 237.201, 174 239.300 M 505 259.951 L 495.500 268.830 498.437 271.915 C 500.052 273.612, 501.894 275, 502.530 275 C 503.165 275, 507.638 270.702, 512.469 265.449 L 521.253 255.898 518.952 253.449 C 517.687 252.102, 516.167 251.016, 515.576 251.036 C 514.984 251.056, 510.225 255.067, 505 259.951 M 188 255.889 C 188 257.478, 187.141 259.841, 186.091 261.139 C 184.285 263.371, 183.455 263.518, 170.860 263.834 C 157.794 264.162, 157.571 264.131, 159.269 262.255 C 161.080 260.254, 161.571 258, 160.196 258 C 159.754 258, 157.858 259.583, 155.982 261.519 L 152.571 265.038 156.252 268.719 C 159.909 272.376, 162.880 272.735, 159.614 269.126 C 157.951 267.288, 158.239 267.228, 170.703 266.817 C 184.413 266.365, 186.574 265.683, 189.384 260.928 C 191.452 257.426, 191.517 253, 189.500 253 C 188.513 253, 188 253.988, 188 255.889 M 528.642 312.750 C 527.594 319.090, 527.864 322, 529.500 322 C 530.630 322, 531 320.787, 531 317.082 C 531 314.377, 531.273 311.452, 531.607 310.582 C 531.992 309.580, 531.673 309, 530.738 309 C 529.809 309, 529.032 310.390, 528.642 312.750 M 155.202 316.250 C 155.366 319.688, 155.950 322.500, 156.500 322.500 C 157.050 322.500, 157.634 319.688, 157.798 316.250 C 158.044 311.071, 157.822 310, 156.500 310 C 155.178 310, 154.956 311.071, 155.202 316.250 M 156.838 333.496 C 156.565 333.768, 156.777 336.693, 157.309 339.996 C 157.984 344.185, 158.722 346, 159.751 346 C 160.939 346, 161.096 345.074, 160.557 341.250 C 159.474 333.580, 158.592 331.741, 156.838 333.496 M 526.577 336.750 C 526.222 338.813, 525.686 341.738, 525.386 343.250 C 524.984 345.278, 525.238 346, 526.353 346 C 528.037 346, 528.535 344.683, 529.477 337.750 C 529.991 333.971, 529.826 333, 528.673 333 C 527.778 333, 526.975 334.438, 526.577 336.750 M 737.903 359.971 L 734.339 373.441 737.401 385.133 L 740.463 396.824 742.732 390.790 C 745.389 383.722, 745.409 382.395, 743.169 362 L 741.466 346.500 737.903 359.971 M 829.030 356.500 C 829.002 357.050, 828.540 362.675, 828.003 369 C 827.092 379.738, 827.183 381.030, 829.377 388.500 L 831.726 396.500 832.943 389.310 C 834.373 380.867, 832.975 362.676, 830.554 358.216 C 829.743 356.722, 829.057 355.950, 829.030 356.500 M 161.272 358.750 C 161.550 359.712, 162.371 362.637, 163.096 365.250 C 164.394 369.924, 165.301 370.940, 166.479 369.034 C 167.552 367.298, 163.986 357, 162.312 357 C 161.314 357, 160.946 357.620, 161.272 358.750 M 521.275 361.250 C 520.648 363.587, 519.814 366.333, 519.422 367.351 C 518.871 368.781, 519.115 369.123, 520.495 368.851 C 522.116 368.533, 524.941 361.862, 524.985 358.250 C 525.022 355.206, 522.307 357.402, 521.275 361.250 M 169.478 380.035 C 168.757 381.202, 172.951 392, 174.125 392 C 176.018 392, 175.848 389.713, 173.572 384.568 C 171.023 378.804, 170.558 378.288, 169.478 380.035 M 512.698 384.724 C 510.787 388.948, 510.421 390.648, 511.304 391.211 C 512.602 392.039, 518.329 381.341, 517.396 379.831 C 516.300 378.058, 515.192 379.211, 512.698 384.724 M 179.590 401.854 C 179.300 402.323, 180.450 404.911, 182.146 407.604 C 186.008 413.736, 185.832 413.568, 187.068 412.332 C 187.781 411.619, 187.107 409.696, 184.902 406.149 C 181.749 401.076, 180.630 400.172, 179.590 401.854 M 501.750 405.593 C 498.790 410.469, 498.495 411.570, 499.912 412.445 C 500.815 413.004, 507 403.877, 507 401.985 C 507 399.570, 504.265 401.450, 501.750 405.593 M 454.500 403.698 C 448.008 404.560, 438.720 408.368, 433.204 412.429 C 420.457 421.812, 414.037 434.769, 414.012 451.161 C 413.964 481.985, 443.294 504.326, 473.485 496.462 C 488.990 492.423, 502.863 478.600, 506.995 463.073 C 508.809 456.252, 508.412 443.453, 506.163 436.252 C 499.373 414.515, 477.383 400.659, 454.500 403.698 M 226.665 412.047 C 220.341 413.108, 208.543 418.824, 203.500 423.269 L 199.500 426.794 196.832 423.647 C 194.959 421.438, 193.844 420.811, 193.088 421.544 C 192.325 422.285, 192.844 423.587, 194.873 426.017 L 197.734 429.444 195.321 433.092 C 189.212 442.322, 186.579 456.859, 188.949 468.263 C 194.449 494.721, 221.241 511.298, 247.465 504.467 C 255.960 502.254, 262.641 498.320, 269.249 491.639 C 273.398 487.445, 275.590 485.921, 276.958 486.279 C 279.464 486.934, 280.482 484.288, 278.024 483.508 C 276.231 482.939, 276.253 482.689, 278.529 477.706 C 290.790 450.867, 274.356 418.633, 245.270 412.469 C 237.867 410.901, 234.015 410.813, 226.665 412.047 M 470.909 431.878 C 465.154 433.738, 457.949 438.157, 454.595 441.884 C 453.547 443.048, 451.735 444, 450.568 444 C 446.242 444, 441 450, 441 454.950 C 441 456.647, 441.646 457.005, 444.750 457.029 C 450.322 457.073, 455 461.617, 455 466.986 C 455 471.586, 456.119 471.986, 461.643 469.365 C 465.116 467.717, 467.991 463.624, 468.011 460.300 C 468.017 459.310, 469.597 456.969, 471.523 455.097 C 476.746 450.022, 481.204 440.332, 480.815 434.897 C 480.436 429.602, 479.156 429.212, 470.909 431.878 M 226.233 458.750 L 226.500 483.500 229.500 483.500 L 232.500 483.500 232.767 458.750 L 233.035 434 229.500 434 L 225.965 434 226.233 458.750 M 463.655 439.829 C 460.148 443.704, 462.975 450, 468.223 450 C 470.609 450, 474 446.479, 474 444 C 474 441.286, 470.525 438, 467.655 438 C 466.365 438, 464.565 438.823, 463.655 439.829 M 250.243 443.157 C 249.341 444.059, 249 449.525, 249 463.078 C 249 483.171, 249.337 484.515, 254.195 483.827 L 256.500 483.500 256.500 463 L 256.500 442.500 253.993 442.207 C 252.614 442.046, 250.927 442.473, 250.243 443.157 M 466.446 443.087 C 465.416 444.755, 467.733 446.667, 469.113 445.287 C 470.267 444.133, 469.545 442, 468 442 C 467.515 442, 466.816 442.489, 466.446 443.087 M 238.243 455.157 C 237.383 456.017, 237 460.307, 237 469.078 C 237 482.734, 237.614 484.476, 242.195 483.827 C 244.481 483.503, 244.500 483.378, 244.500 469 L 244.500 454.500 241.993 454.207 C 240.614 454.046, 238.927 454.473, 238.243 455.157 M 444.212 460.250 C 442.743 462.028, 441.648 468.664, 442.715 469.324 C 444.106 470.184, 451.194 468.300, 452.131 466.822 C 453.645 464.434, 453.045 463.831, 449.853 464.532 C 446.764 465.211, 446.717 465.165, 447.328 462.112 C 447.989 458.807, 446.259 457.773, 444.212 460.250 M 214.451 465.267 C 214.156 466.037, 214.046 470.455, 214.207 475.084 L 214.500 483.500 217.500 483.500 L 220.500 483.500 220.500 474 L 220.500 464.500 217.744 464.183 C 216.065 463.990, 214.779 464.413, 214.451 465.267 M 413.292 481.377 C 407.325 483.899, 406.562 484.483, 407.420 485.870 C 407.807 486.497, 409.997 486.085, 413.270 484.768 C 419.562 482.237, 420.123 481.817, 419.204 480.331 C 418.692 479.501, 417.034 479.795, 413.292 481.377 M 789.024 483.500 C 788.958 485.700, 788.310 498.525, 787.584 512 C 786.859 525.475, 786.318 536.508, 786.383 536.517 C 786.447 536.526, 789.709 533.151, 793.631 529.017 L 800.761 521.500 794.953 500.500 C 790.654 484.955, 789.114 480.539, 789.024 483.500 M 289.499 489.002 C 288.776 490.171, 292.459 491.730, 298.059 492.625 C 301.131 493.117, 302 492.935, 302 491.800 C 302 490.870, 300.165 489.920, 296.924 489.172 C 290.749 487.746, 290.281 487.736, 289.499 489.002 M 389.073 489.378 C 384.806 490.517, 382.247 493, 385.340 493 C 389.187 493, 397 490.540, 397 489.328 C 397 487.759, 395.092 487.771, 389.073 489.378 M 313 494.238 C 313 495.195, 314.359 495.963, 316.750 496.358 C 323.090 497.406, 326 497.136, 326 495.500 C 326 494.533, 325.023 493.996, 323.250 493.989 C 321.738 493.983, 318.813 493.699, 316.750 493.358 C 313.808 492.872, 313 493.061, 313 494.238 M 364.750 493.728 C 362.177 493.998, 361 494.613, 361 495.690 C 361 497.023, 361.939 497.152, 367.244 496.552 C 374.112 495.775, 374.502 495.621, 373.541 494.067 C 372.887 493.008, 371.972 492.973, 364.750 493.728 M 337 496.500 C 337 497.679, 338.389 498, 343.500 498 C 348.611 498, 350 497.679, 350 496.500 C 350 495.321, 348.611 495, 343.500 495 C 338.389 495, 337 495.321, 337 496.500 M 754.607 610.582 C 754.273 611.452, 754 613.845, 754 615.900 C 754 617.955, 753.291 622.025, 752.424 624.944 C 751.177 629.144, 750.996 632.547, 751.560 641.243 L 752.273 652.234 756.776 651.617 C 759.253 651.278, 764.331 651, 768.060 651 C 774.776 651, 774.847 650.971, 775.497 648.011 C 775.858 646.368, 776.569 644.766, 777.077 644.452 C 777.585 644.139, 778 642.950, 778 641.812 C 778 639.857, 777.624 639.779, 771.237 640.408 L 764.474 641.074 762.164 627.390 C 759.561 611.974, 756.600 605.388, 754.607 610.582" stroke="none" fill="#ffffff" fill-rule="evenodd"/><path d="M 770 217.154 C 767.525 217.668, 763.700 217.895, 761.500 217.656 C 759.300 217.418, 758.031 217.425, 758.681 217.672 C 759.511 217.987, 759.290 219.089, 757.936 221.384 C 755.394 225.693, 754.531 232.545, 755.894 237.606 C 757.355 243.032, 762.104 249.436, 765.920 251.125 C 768.896 252.442, 769.002 252.707, 769.047 258.994 L 769.095 265.500 777.648 272.396 C 782.453 276.269, 786.486 278.852, 786.851 278.290 C 787.208 277.739, 789.877 273.687, 792.783 269.286 L 798.066 261.283 797.128 249.546 C 796.266 238.756, 795.970 237.578, 793.457 234.956 C 791.954 233.387, 789.809 231.967, 788.691 231.801 C 787.206 231.581, 786.155 229.990, 784.796 225.904 C 781.622 216.357, 779.598 215.160, 770 217.154 M 738.930 591.131 C 738.260 592.382, 737.952 596.148, 738.184 600.248 C 738.544 606.627, 738.859 607.485, 741.805 610.117 C 744.181 612.240, 746.050 613, 748.894 613 C 752.222 613, 752.925 612.595, 753.970 610.074 C 754.674 608.373, 754.829 606.554, 754.341 605.731 C 752.583 602.772, 741.467 589.090, 740.785 589.046 C 740.392 589.021, 739.557 589.959, 738.930 591.131 M 787 637.656 C 778.173 639.010, 778.229 638.985, 777.819 641.783 L 777.417 644.517 781.878 642.258 C 784.466 640.948, 788.157 640, 790.669 640 C 793.852 640, 795 639.602, 795 638.500 C 795 637.007, 792.767 636.771, 787 637.656" stroke="none" fill="#9f616a" fill-rule="evenodd"/><path d="M 345.931 110.203 L 354.361 118.905 346.931 119.254 L 339.500 119.603 347.250 119.801 C 351.512 119.911, 355 119.653, 355 119.228 C 355 118.803, 351.063 114.641, 346.250 109.978 L 337.500 101.500 345.931 110.203 M 315.419 127 C 315.419 137.725, 315.566 142.113, 315.746 136.750 C 315.925 131.387, 315.925 122.612, 315.746 117.250 C 315.566 111.888, 315.419 116.275, 315.419 127 M 356.389 135.500 C 356.390 142.650, 356.550 145.444, 356.742 141.708 C 356.935 137.973, 356.934 132.123, 356.739 128.708 C 356.545 125.294, 356.387 128.350, 356.389 135.500 M 282.750 131.771 C 280.137 132.640, 278 133.722, 278 134.176 C 278 135.343, 279.150 135.211, 284.054 133.481 C 287.493 132.268, 288.521 132.217, 289.164 133.231 C 290.120 134.737, 290.249 133.811, 289.393 131.582 C 288.685 129.737, 288.884 129.731, 282.750 131.771 M 396 130.842 C 396 131.305, 397.847 132.237, 400.104 132.913 C 402.361 133.589, 404.836 134.384, 405.604 134.678 C 406.372 134.973, 407 134.758, 407 134.201 C 407 133.644, 404.895 132.471, 402.322 131.594 C 396.989 129.777, 396 129.659, 396 130.842 M 331.287 132.740 C 334.469 132.939, 339.419 132.937, 342.287 132.736 C 345.154 132.535, 342.550 132.372, 336.500 132.374 C 330.450 132.376, 328.104 132.541, 331.287 132.740 M 261.206 140.836 C 258.294 142.345, 256.211 143.878, 256.578 144.244 C 257.438 145.105, 267 140.278, 267 138.983 C 267 137.749, 267.436 137.609, 261.206 140.836 M 418.575 138.878 C 418.318 139.295, 420.540 140.829, 423.513 142.287 C 426.487 143.746, 429.175 144.525, 429.488 144.020 C 430.095 143.037, 428.693 142.128, 422.772 139.669 C 420.721 138.817, 418.833 138.461, 418.575 138.878 M 440 149.895 C 440 151.280, 448.979 157.354, 449.805 156.528 C 450.496 155.837, 447.662 153.413, 442.816 150.550 C 441.267 149.635, 440 149.341, 440 149.895 M 240.482 152.654 C 235.399 156.042, 235.558 155.892, 236.287 156.621 C 236.997 157.331, 245.995 151.891, 245.998 150.750 C 246.001 149.436, 244.569 149.930, 240.482 152.654 M 221.041 167 C 218.588 169.153, 216.876 171.209, 217.236 171.569 C 218.143 172.476, 227.109 164.986, 226.431 163.888 C 225.727 162.749, 226.184 162.485, 221.041 167 M 459.167 163.811 C 459.958 165.737, 467.887 171.992, 468.428 171.117 C 468.755 170.587, 467.059 168.544, 464.659 166.577 C 460.437 163.117, 458.476 162.129, 459.167 163.811 M 477.003 179.542 C 477.008 181.275, 484.639 189.393, 485.283 188.350 C 485.630 187.790, 483.908 185.363, 481.457 182.957 C 479.005 180.552, 477.001 179.015, 477.003 179.542 M 203.584 184.173 C 201.620 186.468, 200.243 188.576, 200.525 188.858 C 201.125 189.459, 209 181.970, 209 180.797 C 209 178.970, 206.937 180.255, 203.584 184.173 M 492.734 197.600 C 492.039 198.294, 498.102 207.955, 499.250 207.982 C 500.675 208.016, 499.988 206.335, 496.672 201.671 C 494.841 199.096, 493.069 197.264, 492.734 197.600 M 189.048 202.430 C 185.850 207.078, 185.479 208, 186.807 208 C 187.569 208, 194 199.480, 194 198.471 C 194 196.775, 191.641 198.661, 189.048 202.430 M 157.750 246.740 C 161.188 246.936, 166.813 246.936, 170.250 246.740 C 173.688 246.545, 170.875 246.385, 164 246.385 C 157.125 246.385, 154.313 246.545, 157.750 246.740 M 120.320 255 C 120.320 258.575, 120.502 260.038, 120.723 258.250 C 120.945 256.462, 120.945 253.537, 120.723 251.750 C 120.502 249.963, 120.320 251.425, 120.320 255 M 160.212 261.032 C 159.545 262.099, 159 263.204, 159 263.486 C 159 263.769, 164.063 263.904, 170.250 263.788 L 181.500 263.575 170.656 263.253 C 161.187 262.971, 159.969 262.742, 161.049 261.441 C 161.729 260.622, 162.091 259.758, 161.855 259.521 C 161.618 259.285, 160.879 259.964, 160.212 261.032 M 798.052 260.009 C 798.013 261.130, 788.848 275.970, 786.400 278.875 C 786.226 279.081, 782.481 276.268, 778.077 272.625 C 770.251 266.150, 768 264.908, 768 267.066 C 768 268.423, 789.876 365.210, 790.272 365.606 C 790.434 365.768, 793.857 355.997, 797.878 343.892 L 805.188 321.884 803.025 293.692 C 801.763 277.259, 800.286 264.040, 799.482 262 C 798.724 260.075, 798.080 259.179, 798.052 260.009 M 529 315.500 C 529 319.167, 529.436 322, 530 322 C 530.564 322, 531 319.167, 531 315.500 C 531 311.833, 530.564 309, 530 309 C 529.436 309, 529 311.833, 529 315.500 M 155.394 315.699 C 156.051 321.284, 156.549 322.784, 157.450 321.883 C 158.314 321.019, 156.712 310, 155.722 310 C 155.097 310, 154.975 312.127, 155.394 315.699 M 157.563 338.750 C 157.940 341.363, 158.581 344.120, 158.986 344.878 C 160.300 347.335, 160.664 344.629, 159.745 339.250 C 158.608 332.601, 156.609 332.143, 157.563 338.750 M 526.664 339.191 C 526.079 344.132, 526.363 345.970, 527.531 344.802 C 528.606 343.727, 529.279 334, 528.279 334 C 527.729 334, 527.002 336.336, 526.664 339.191 M 162.444 360.357 C 163.374 365.582, 164.749 369, 165.921 369 C 166.477 369, 166.235 366.756, 165.355 363.750 C 163.426 357.159, 161.469 354.878, 162.444 360.357 M 521.539 362.182 C 519.770 368.139, 519.682 369, 520.842 369 C 521.305 369, 522.233 367.087, 522.905 364.750 C 523.578 362.413, 524.354 359.712, 524.631 358.750 C 524.908 357.788, 524.672 357, 524.106 357 C 523.540 357, 522.385 359.332, 521.539 362.182 M 169.970 382.421 C 171.732 387.055, 174.031 391, 174.969 391 C 176.211 391, 171.600 380.700, 170.140 380.213 C 169.299 379.933, 169.252 380.534, 169.970 382.421 M 513.499 384.250 C 512.554 386.587, 511.557 389.063, 511.283 389.750 C 511.010 390.438, 511.229 391, 511.770 391 C 512.311 391, 513.709 388.779, 514.877 386.065 C 517.263 380.518, 517.368 380, 516.109 380 C 515.618 380, 514.444 381.913, 513.499 384.250 M 789.650 391 C 788.438 393.865, 784 407.355, 784 408.175 C 784 408.629, 786.484 409, 789.519 409 L 795.038 409 794.335 406.250 C 793.948 404.738, 792.878 400.350, 791.958 396.500 C 790.979 392.407, 790.021 390.123, 789.650 391 M 502.134 406.091 C 498.712 411.596, 498.560 412, 499.914 412 C 501.254 412, 507.082 402.169, 506.101 401.563 C 505.644 401.280, 503.858 403.317, 502.134 406.091 M 180 402.520 C 180 402.988, 184.747 410.904, 185.635 411.917 C 185.836 412.146, 186.265 412.069, 186.588 411.745 C 187.345 410.989, 182.103 402, 180.905 402 C 180.407 402, 180 402.234, 180 402.520 M 193.555 421.912 C 193.242 422.417, 194.147 424.210, 195.565 425.895 C 197.010 427.612, 197.824 429.475, 197.417 430.134 C 196.963 430.869, 197.123 431.042, 197.845 430.595 C 198.480 430.203, 199 429.186, 199 428.335 C 199 426.293, 194.285 420.730, 193.555 421.912 M 232.999 459.202 C 232.724 472.787, 232.846 483.557, 233.269 483.133 C 233.691 482.709, 233.916 471.594, 233.767 458.431 L 233.497 434.500 232.999 459.202 M 257.419 463 C 257.419 473.725, 257.566 478.113, 257.746 472.750 C 257.925 467.387, 257.925 458.613, 257.746 453.250 C 257.566 447.887, 257.419 452.275, 257.419 463 M 245.392 469 C 245.392 476.425, 245.549 479.462, 245.742 475.750 C 245.934 472.038, 245.934 465.962, 245.742 462.250 C 245.549 458.538, 245.392 461.575, 245.392 469 M 220.500 474 C 220.500 479.395, 220.838 483.600, 221.250 483.345 C 221.662 483.091, 222 478.885, 222 474 C 222 469.115, 221.662 464.909, 221.250 464.655 C 220.838 464.400, 220.500 468.605, 220.500 474 M 839.310 471.500 C 839.315 474.800, 839.502 476.029, 839.725 474.232 C 839.947 472.435, 839.943 469.735, 839.715 468.232 C 839.486 466.729, 839.304 468.200, 839.310 471.500 M 412.750 482.206 C 410.137 483.330, 408 484.692, 408 485.232 C 408 485.772, 408.563 485.990, 409.250 485.717 C 417.087 482.599, 419 481.652, 419 480.891 C 419 479.680, 418.258 479.836, 412.750 482.206 M 290 488.905 C 290 490.091, 300.838 493.496, 301.741 492.593 C 302.662 491.671, 301.456 490.893, 297.829 490.067 C 295.998 489.650, 293.488 488.984, 292.250 488.587 C 290.897 488.153, 290 488.280, 290 488.905 M 390.665 489.564 C 385.764 490.853, 384.292 491.625, 385.130 492.463 C 385.617 492.950, 395.871 490.462, 396.670 489.663 C 397.873 488.460, 395.038 488.413, 390.665 489.564 M 313.460 494.065 C 312.917 494.944, 314.275 495.366, 321.250 496.488 C 323.485 496.847, 325 496.687, 325 496.091 C 325 495.541, 323.313 494.820, 321.250 494.490 C 319.188 494.160, 316.713 493.732, 315.751 493.539 C 314.789 493.346, 313.758 493.582, 313.460 494.065 M 370 493.730 C 363.495 494.535, 361 495.164, 361 495.998 C 361 497.089, 371.101 496.108, 372.433 494.888 C 373.711 493.719, 372.963 493.363, 370 493.730 M 337.500 497 C 337.840 497.550, 340.566 498, 343.559 498 C 346.552 498, 349 497.550, 349 497 C 349 496.443, 346.314 496, 342.941 496 C 339.156 496, 337.114 496.375, 337.500 497" stroke="none" fill="#d0cde1" fill-rule="evenodd"/><path d="M 326 81.388 C 307.193 85.563, 292.753 101.488, 289.888 121.215 C 286.382 145.350, 303.858 168.576, 328.887 173.049 C 352.028 177.185, 375.383 161.823, 381.467 138.465 C 390.180 105.015, 359.906 73.863, 326 81.388 M 318.736 102.250 C 315.674 104.575, 315 109.024, 315 126.916 C 315 145.338, 315.796 150.285, 319.039 152.021 C 320.045 152.559, 328.065 153, 336.862 153 L 352.855 153 354.927 150.365 C 356.770 148.022, 357 146.360, 357 135.365 L 357 123 347.122 123 C 334.740 123, 334.618 122.881, 334.153 110.349 L 333.807 101 327.095 101 C 323.269 101, 319.674 101.538, 318.736 102.250 M 338 110.165 C 338 117.104, 338.309 118.904, 339.582 119.393 C 341.887 120.278, 355 120.137, 355 119.228 C 355 118.803, 351.175 114.651, 346.500 110 L 338 101.544 338 110.165 M 325.667 129.667 C 323.812 131.521, 325.931 132, 336 132 C 345.111 132, 347 131.742, 347 130.500 C 347 129.263, 345.185 129, 336.667 129 C 330.983 129, 326.033 129.300, 325.667 129.667 M 325.467 139.053 C 324.045 141.354, 326.948 142.068, 336.588 141.788 C 344.604 141.555, 346.500 141.213, 346.500 140 C 346.500 138.784, 344.577 138.446, 336.330 138.216 C 329.609 138.028, 325.925 138.312, 325.467 139.053 M 156.335 209.423 C 143.027 212.650, 131.579 222.004, 125.241 234.827 C 121.770 241.850, 121.497 243.068, 121.191 252.928 C 120.920 261.639, 121.227 264.542, 122.935 269.419 C 130.580 291.242, 152.013 304.479, 174.146 301.045 C 197.247 297.461, 214.034 277.866, 213.988 254.540 C 213.930 224.806, 185.297 202.399, 156.335 209.423 M 506 209.814 C 488.223 214.461, 474.962 229.234, 471.894 247.810 C 467.814 272.516, 485.575 296.711, 510.930 300.988 C 535.672 305.161, 559.824 287.560, 564.175 262.185 C 567.518 242.691, 556.833 221.894, 539 213.185 C 528.028 207.827, 517.657 206.767, 506 209.814 M 512.679 236.031 C 509.445 238.582, 510.055 239.721, 514.899 240.179 C 519.322 240.597, 520.883 242.982, 519.016 246.470 C 517.753 248.831, 517.828 249.273, 519.842 251.285 C 521.984 253.426, 522.158 253.443, 525.029 251.797 C 527.221 250.540, 528 250.429, 528 251.372 C 528 252.851, 532.149 257, 533.627 257 C 535.169 257, 540 251.580, 540 249.850 C 540 248.173, 536.951 245, 535.340 245 C 534.789 245, 533.744 243.890, 533.017 242.533 C 531.123 238.992, 524.276 234.785, 519.552 234.257 C 516.418 233.907, 514.861 234.309, 512.679 236.031 M 173.513 237.979 C 173.180 238.518, 173.394 239.868, 173.989 240.979 C 175.047 242.957, 174.803 243, 162.551 243 C 150.221 243, 149.984 243.043, 146.865 245.830 C 144.260 248.156, 143.680 249.445, 143.599 253.080 C 143.468 258.940, 146.169 259.327, 147.103 253.582 C 148.069 247.641, 149.654 247, 163.391 247 C 172.731 247, 175.133 247.267, 174.200 248.200 C 172.609 249.791, 172.670 252, 174.304 252 C 175.815 252, 182 245.891, 182 244.399 C 182 243.313, 175.823 237, 174.761 237 C 174.408 237, 173.846 237.441, 173.513 237.979 M 505.518 258.613 C 500.283 263.350, 496 267.990, 496 268.926 C 496 270.727, 500.922 276, 502.605 276 C 504.085 276, 521 257.380, 521 255.750 C 521 254.360, 516.984 250, 515.703 250 C 515.336 250, 510.753 253.876, 505.518 258.613 M 187.632 255.898 C 186.642 262.094, 184.540 263, 171.155 263 C 161.288 263, 159.918 262.804, 160.964 261.544 C 162.299 259.935, 161.575 258, 159.637 258 C 158.953 258, 156.857 259.584, 154.981 261.520 L 151.569 265.040 155.767 269.238 C 159.020 272.491, 160.233 273.167, 161.159 272.241 C 162.084 271.316, 161.941 270.592, 160.521 269.024 C 158.692 267.003, 158.706 267, 170.941 267 C 180.693 267, 183.781 266.652, 186.080 265.294 C 191.190 262.275, 193.895 252.977, 189.885 252.213 C 188.695 251.986, 188.103 252.954, 187.632 255.898 M 449.265 405.542 C 426.006 411.805, 411.059 434.635, 414.983 457.901 C 420.232 489.017, 453.567 506.348, 481.602 492.536 C 504.565 481.222, 514.129 453.935, 503.258 430.750 C 493.883 410.756, 470.478 399.829, 449.265 405.542 M 223.105 413.583 C 210.149 417.067, 199.183 426.179, 193.505 438.178 C 181.158 464.275, 193.436 493.628, 220.649 503.068 C 227.412 505.414, 240.107 505.856, 247.047 503.987 C 254.618 501.949, 263.197 496.976, 268.449 491.583 C 282.533 477.117, 285.865 456.637, 277.164 438 C 273.987 431.195, 263.265 420.217, 256.744 417.094 C 246.079 411.985, 233.807 410.704, 223.105 413.583 M 467.647 432.430 C 464.428 433.766, 459.703 436.618, 457.147 438.767 C 454.591 440.915, 451.336 442.962, 449.912 443.315 C 445.703 444.359, 442.131 447.832, 440.842 452.132 C 439.438 456.819, 440.685 458.377, 445.103 457.451 C 447.160 457.020, 448.470 457.670, 451.353 460.553 C 454.870 464.070, 456.373 466.384, 453.698 464.164 C 452.982 463.570, 451.381 463.349, 450.139 463.674 C 448.153 464.193, 447.920 463.931, 448.191 461.487 C 448.582 457.967, 446.728 457.272, 444.063 459.938 C 442.667 461.333, 442 463.293, 442 466 C 442 469.874, 442.106 470, 445.365 470 C 447.255 470, 449.885 469.092, 451.365 467.927 L 454 465.855 454 468.320 C 454 471.809, 456.589 472.377, 461.546 469.978 C 465.578 468.026, 469 463.395, 469 459.891 C 469 459.172, 470.545 456.990, 472.433 455.042 C 477.477 449.837, 481.221 441.698, 481.373 435.610 L 481.500 430.500 477.500 430.249 C 475.034 430.095, 471.255 430.931, 467.647 432.430 M 225.450 434.270 C 225.182 434.968, 225.084 446.331, 225.231 459.520 L 225.500 483.500 229.500 483.500 L 233.500 483.500 233.768 459.625 C 233.957 442.852, 233.697 435.340, 232.896 434.375 C 231.462 432.647, 226.102 432.571, 225.450 434.270 M 464.200 440.200 C 463.540 440.860, 463 442.570, 463 444 C 463 445.430, 463.540 447.140, 464.200 447.800 C 464.860 448.460, 466.570 449, 468 449 C 469.430 449, 471.140 448.460, 471.800 447.800 C 472.460 447.140, 473 445.430, 473 444 C 473 442.570, 472.460 440.860, 471.800 440.200 C 471.140 439.540, 469.430 439, 468 439 C 466.570 439, 464.860 439.540, 464.200 440.200 M 466.064 442.423 C 464.512 444.293, 465.497 446, 468.129 446 C 469.624 446, 470.057 445.443, 469.820 443.828 C 469.420 441.115, 467.688 440.466, 466.064 442.423 M 249.446 443.279 C 249.176 443.983, 249.078 453.321, 249.228 464.029 L 249.500 483.500 252.895 483.824 C 254.937 484.019, 256.625 483.621, 257.130 482.824 C 258.085 481.318, 258.322 446.002, 257.393 443.582 C 256.650 441.646, 250.168 441.400, 249.446 443.279 M 238.661 454.258 C 237.151 455.363, 236.975 457.226, 237.220 469.508 L 237.500 483.500 240.895 483.824 C 242.937 484.019, 244.625 483.621, 245.130 482.824 C 245.592 482.096, 245.976 475.795, 245.985 468.821 C 245.997 458.614, 245.694 455.837, 244.429 454.571 C 242.529 452.672, 240.948 452.586, 238.661 454.258 M 213.449 465.273 C 213.155 466.040, 213.046 470.455, 213.207 475.084 L 213.500 483.500 217.500 483.500 L 221.500 483.500 221.500 474 L 221.500 464.500 217.742 464.189 C 215.223 463.981, 213.808 464.338, 213.449 465.273" stroke="none" fill="#1aa6dd" fill-rule="evenodd"/><path d="" stroke="none" fill="#266389" fill-rule="evenodd"/></svg>